<?xml version="1.0" standalone="no"?>
<!DOCTYPE svg PUBLIC "-//W3C//DTD SVG 20010904//EN"
 "http://www.w3.org/TR/2001/REC-SVG-20010904/DTD/svg10.dtd">
<svg version="1.0" xmlns="http://www.w3.org/2000/svg"
 width="260.000000pt" height="260.000000pt" viewBox="0 0 260.000000 260.000000"
 preserveAspectRatio="xMidYMid meet">
<metadata>
Created by potrace 1.14, written by Peter Selinger 2001-2017
</metadata>
<g transform="translate(0.000000,260.000000) scale(0.100000,-0.100000)"
fill="#000000" stroke="none">
<path d="M1130 2588 c-417 -55 -784 -311 -980 -683 -50 -94 -112 -278 -131
-385 -14 -83 -18 -325 -5 -409 20 -139 85 -330 152 -446 200 -351 538 -586
939 -650 78 -13 301 -12 390 1 401 59 753 307 949 667 47 86 119 288 131 367
20 131 23 165 20 280 -3 146 -15 218 -56 355 -137 454 -520 797 -997 891 -90
18 -318 25 -412 12z m365 -307 c28 -6 57 -14 65 -17 9 -3 -194 -212 -600 -619
-338 -338 -617 -612 -621 -610 -4 3 -10 22 -14 42 -4 21 -10 52 -13 68 -8 38
-7 268 0 315 26 159 99 324 197 450 158 202 368 329 621 375 86 15 288 13 365
-4z m431 -202 c57 -44 174 -168 174 -184 0 -6 -61 -71 -135 -145 l-135 -135 0
-207 c0 -115 2 -208 5 -208 2 0 98 93 212 206 l207 206 19 -78 c19 -83 28
-301 15 -384 -55 -364 -306 -667 -658 -794 -109 -39 -217 -55 -355 -51 -103 2
-248 24 -276 40 -4 3 113 127 261 275 l270 270 0 212 0 213 -410 -410 -410
-411 -53 42 c-79 62 -186 186 -174 202 22 28 1374 1380 1381 1381 5 1 33 -17
62 -40z"/>
</g>
</svg>
